# xmcd
#
# Track frame offsets:
#	150
#	3008
#	15658
#	25736
#	36229
#	53318
#	64664
#	81162
#	91604
#	97339
#	123663
#	139814
#	153246
#	168499
#	174412
#	179744
#	199402
#	213918
#	239442
#	256588
#	266778
#	285315
#	296761
#	315361
#
# Disc length: 4417 seconds
#
# Revision: 1
# Processed by: cddbd v1.5.1PL2 Copyright (c) Steve Scherf et al.
# Submitted via: audiograbber 1.83.01
#
DISCID=46113f18
DTITLE=Bar J Wranglers - Back At The Ranch Live
DYEAR=2005
DGENRE=
TTITLE0=Welcome From Babe
TTITLE1=Night Herding Song - Norman Luboff/Kenneth S. Clark
TTITLE2=Cowboy Has To Sing - Bob Nolan
TTITLE3=Chant Of The Wanderer - Bob Nolan
TTITLE4=No One To Cry To - Sydney Robin/Foy Willing
TTITLE5=Back In The Saddle Again - Ray Whitley
TTITLE6=Tim's Intro
TTITLE7=Fiddle Medley - Cottoneyed Joe, Turkey In The Straw,Arkansas Traveler, 
TTITLE7=Devil Went Down To Georgia - Robert "Bob" Wills/Tommy Duncan, Tradition
TTITLE7=al, Traditional, Charles "Charlie" Edward Daniels
TTITLE8=Scott's Intro
TTITLE9=Nght Rider's Lament - Michael E. Burton
TTITLE10=Bryan's Intro
TTITLE11=The Auctioneer - Leroy Van Dyke/Buddy Black
TTITLE12=Donnie's Intro
TTITLE13=At The Boarding House - Unknown
TTITLE14=Jerry's Intro
TTITLE15=Carry Me Back To The Lone Prairie - Carson J. Robison
TTITLE16=Panhandle Rag - Leon McAuliffe
TTITLE17=Granny
TTITLE18=Too Old To Cut The Mustard - Haage Ulrike/ Bar J Wranglers
TTITLE19=Sagebrush In Heaven - Pearl Walls
TTITLE20=Come Unto Me - Alphus Lefevre
TTITLE21=Fare Thee Well - Joel David Hanson
TTITLE22=Commercial
TTITLE23=Skyball Paint - Bob Nolan
EXTD=
EXTT0=
EXTT1=
EXTT2=
EXTT3=
EXTT4=
EXTT5=
EXTT6=
EXTT7=
EXTT8=
EXTT9=
EXTT10=
EXTT11=
EXTT12=
EXTT13=
EXTT14=
EXTT15=
EXTT16=
EXTT17=
EXTT18=
EXTT19=
EXTT20=
EXTT21=
EXTT22=
EXTT23=
PLAYORDER=
